<?xml version="1.0" encoding="utf-8"?>
<!-- Generator: Adobe Illustrator 22.0.0, SVG Export Plug-In . SVG Version: 6.00 Build 0)  -->
<svg version="1.1" id="Слой_1" xmlns="http://www.w3.org/2000/svg" xmlns:xlink="http://www.w3.org/1999/xlink" x="0px" y="0px"
	 viewBox="0 0 125 38.4" style="enable-background:new 0 0 125 38.4;" xml:space="preserve">
<style type="text/css">
	.st0{fill:#00a4d1;}
</style>
<g>
	<g>
		<g>
			<path class="st0" d="M34.8,23.5c2,0,3.4,0.2,5,0.4v-0.7c0-3.5-2.9-4-5.1-4c-1.9,0-3.2,0.2-5.2,0.6c-1.9,0.4-2,0.2-2-1
				c0-2.8,1.1-4,2.8-4.5c1.6-0.5,3.7-0.7,5.8-0.7c2.9,0,10.3,0.7,10.3,8.6v13.7c0,1.8,0,2.3-1.2,2.3c-2.5,0-4-0.7-4.7-2.3
				c-1.2,1.1-3.1,2.4-6.7,2.4c-5.4,0-8-2.8-8-7.7C25.6,25.7,28.1,23.5,34.8,23.5z M39.8,28.9c-1.1-0.2-2.2-0.3-3.4-0.3
				c-2.8,0-4.2,0.3-4.2,2.1c0,1.6,1.1,2.3,3.4,2.3c1.8,0,3.1-0.6,4.2-1.5V28.9z"/>
			<path class="st0" d="M70,8.1c2.2,0,3.8-1.5,3.8-3.7S72.2,0.8,70,0.8c-2.2,0-3.8,1.5-3.8,3.6C66.2,6.7,67.8,8.1,70,8.1z"/>
		</g>
		<path class="st0" d="M23,3.2c-0.1-0.2-0.3-0.4-0.5-0.6C20.6,0.4,16.1,0,14.2,0c-4.2,0-7,1.4-8.6,3.8C4.3,5.7,3.7,8.1,3.7,11v2.9H2
			c-1.8,0-2,0.3-2,2.1v0.8c0,2.6,0,2.9,2,2.9h1.7v15.7c0,2.2,0.4,2.6,2.5,2.6h1.5c2.1,0,2.5-0.4,2.5-2.6V19.7h2.9c1.8,0,2-0.3,2-2.1
			V16c0-1.8-0.2-2.1-2-2.1h-2.9v-2.3c0-3.1,0.9-4.6,1.9-5.3c0.8-0.5,1.8-0.7,2.6-0.7c0.5,0,1.3,0.1,2.1,0.5c0.1,0,0.1,0.1,0.2,0.1
			v29.2c0,2.2,0.4,2.6,2.5,2.6H21c2.1,0,2.5-0.4,2.5-2.6V5.3C23.5,4.4,23.3,3.7,23,3.2z"/>
		<path class="st0" d="M123.8,17.4L123.8,17.4c-0.9-1.7-2.3-2.9-4.2-3.5c-0.8-0.3-1.8-0.4-2.8-0.4c-2.9,0-5.3,1.5-6.9,3.7
			c-1.1-2.4-3.2-3.7-6.4-3.7c-3.1,0-5.3,1.2-6.7,3c0,0,0-0.1-0.1-0.1l0,0c0-0.1-0.1-0.2-0.1-0.3c0-0.1-0.1-0.1-0.1-0.2
			c0,0,0,0,0-0.1s-0.1-0.1-0.1-0.2l0,0c-0.1-0.2-0.3-0.3-0.4-0.5l0,0c-0.2-0.1-0.3-0.3-0.5-0.4l0,0c-0.1,0-0.2-0.1-0.2-0.1
			s0,0-0.1,0s-0.1-0.1-0.2-0.1s-0.1,0-0.2-0.1c0,0-0.1,0-0.2-0.1c-0.1,0-0.1,0-0.2-0.1c0,0,0,0-0.1,0c-0.5-0.2-1.1-0.2-1.7-0.3l0,0
			c-0.1,0-0.2,0-0.3,0c-0.1,0-0.2,0-0.2,0H92l0,0l0,0c-1.2,0-1.2,0.5-1.2,2.3v11.6c-0.2,2.7-1.3,4.3-4,4.3c-3,0-3.9-2.1-3.9-4.5
			v-8.3c0-3.8-1.5-5.4-5.3-5.4c-1.2,0-1.2,0.5-1.2,2.3v11.6c0,6.8,2.5,10.5,8.4,10.5c2.7,0,4.6-1,6-2.4c0.1-0.1,0.2-0.2,0.3-0.3
			c0.4,1.3,1.4,2.1,2.9,2.5c0.6,0.1,1.3,0.2,2.1,0.2c1.2,0,1.2-0.5,1.2-2.3v-0.1c0-0.1,0-0.3,0-0.4V24c0.1-2.7,1.1-4.7,3.7-4.7
			c2.7,0,3.6,2.4,3.6,5.4v10.7c0,2.2,0.4,2.6,2.5,2.6h1.5c2.1,0,2.5-0.4,2.5-2.6V23.6c0.3-2.3,1.9-4.4,4-4.4c2.9,0,3.4,2.4,3.4,5.9
			v8.6v0.6v0.1l0,0l0,0l0,0c0,0.2,0.2,0.7,0.3,1c0.6,1.3,1.4,2.2,2.9,2.5c0.6,0.1,1.3,0.2,2.1,0.2c1.3,0,1.3-0.5,1.3-2.3v-0.1l0,0
			l0,0l0,0l0,0v-0.1v-0.1v-0.1l0,0l0,0l0,0V23.6l0,0v-1.4C125,20.2,124.5,18.6,123.8,17.4z"/>
		<g>
			<path class="st0" d="M70.7,38H70c0.6,0.1,1.3,0.2,2,0.2c1.2,0,1.2-0.5,1.2-2.3v-0.5C73.2,37.6,72.9,38,70.7,38z"/>
			<path class="st0" d="M68,13.9C67.9,13.9,67.9,13.9,68,13.9c-0.1,0-0.2,0-0.3,0H57.3V9.2c0-1.8,0-2.3-1.2-2.3
				c-2.5,0-4.6,2.1-5.2,7h-1.4c-1.7,0-2,0.3-2,2.1v1.7c0,1.8,0.3,2.1,2,2.1h1.3v8.5c0,6.2,1.4,10.1,7.1,10.1c3.4,0,5.2-1,5.9-2.6
				c0.3-0.7,0.5-1.5,0.5-2.4c0-1.6-0.4-1.8-1.2-1.6c-1.1,0.3-2.1,0.5-3,0.5c-0.8,0-2.8-0.4-2.8-4.3v-8.3h9.5v3.5v0.7v4.9v2.7v2.9
				c0,0.3,0.2,0.7,0.4,1.2c0.2,0.5,0.6,1,0.7,1.1c0.6,0.6,1.2,1,2.2,1.2h0.8c2.1,0,2.5-0.4,2.5-2.6V22.2l0,0v-2.8
				C73.2,15.5,71.8,13.9,68,13.9z"/>
		</g>
	</g>
</g>
</svg>
