<svg xmlns="http://www.w3.org/2000/svg" xmlns:xlink="http://www.w3.org/1999/xlink" viewBox="0 0 56 75" version="1.1" width="90px" height="92px" x="0px" y="0px"><title>98 -Door- (construction, tool, work, building)</title><desc>Created with Sketch.</desc><g stroke="none" stroke-width="1" fill="none" fill-rule="evenodd"><g transform="translate(-960.000000, -1480.000000)"><g transform="translate(960.000000, 1480.000000)"><path d="M43.0178,58.0035 L43.0178,6.0035 L13.0178,6.0035 L13.0178,58.0035 L11.0178,58.0035 L11.0178,5.0035 C11.0178,4.4505 11.4648,4.0035 12.0178,4.0035 L44.0178,4.0035 C44.5708,4.0035 45.0178,4.4505 45.0178,5.0035 L45.0178,58.0035 L43.0178,58.0035 Z M40.0178,24.0035 L16.0178,24.0035 C15.4648,24.0035 15.0178,23.5565 15.0178,23.0035 L15.0178,9.0035 C15.0178,8.4505 15.4648,8.0035 16.0178,8.0035 L40.0178,8.0035 C40.5708,8.0035 41.0178,8.4505 41.0178,9.0035 L41.0178,23.0035 C41.0178,23.5565 40.5708,24.0035 40.0178,24.0035 L40.0178,24.0035 Z M33.0178,33.0035 C32.4648,33.0035 32.0178,32.5565 32.0178,32.0035 C32.0178,31.4505 32.4648,31.0035 33.0178,31.0035 L35.0178,31.0035 L35.0178,30.0035 C35.0178,29.4505 35.4648,29.0035 36.0178,29.0035 L40.0178,29.0035 C40.5708,29.0035 41.0178,29.4505 41.0178,30.0035 L41.0178,34.0035 C41.0178,34.5565 40.5708,35.0035 40.0178,35.0035 L36.0178,35.0035 C35.4648,35.0035 35.0178,34.5565 35.0178,34.0035 L35.0178,33.0035 L33.0178,33.0035 Z M55.0178,58.0035 L49.0178,58.0035 L49.0178,1.0035 C49.0178,0.4505 48.5708,0.0035 48.0178,0.0035 L8.0178,0.0035 C7.4648,0.0035 7.0178,0.4505 7.0178,1.0035 L7.0178,58.0035 L1.0178,58.0035 C0.4648,58.0035 0.0178,58.4505 0.0178,59.0035 C0.0178,59.5565 0.4648,60.0035 1.0178,60.0035 L8.0178,60.0035 L11.0178,60.0035 L13.0178,60.0035 L43.0178,60.0035 L45.0178,60.0035 L48.0178,60.0035 L55.0178,60.0035 C55.5708,60.0035 56.0178,59.5565 56.0178,59.0035 C56.0178,58.4505 55.5708,58.0035 55.0178,58.0035" fill="#000000"/><path d="M37.018,33.003 L39.018,33.003 L39.018,31.003 L37.018,31.003 L37.018,33.003 Z" fill="#000000"/><path d="M36.0178,14.0035 C35.4658,14.0035 35.0178,13.5555 35.0178,13.0035 C35.0178,12.4515 35.4658,12.0035 36.0178,12.0035 C36.5698,12.0035 37.0178,12.4515 37.0178,13.0035 C37.0178,13.5555 36.5698,14.0035 36.0178,14.0035 M36.0178,20.0035 C35.4658,20.0035 35.0178,19.5555 35.0178,19.0035 C35.0178,18.4515 35.4658,18.0035 36.0178,18.0035 C36.5698,18.0035 37.0178,18.4515 37.0178,19.0035 C37.0178,19.5555 36.5698,20.0035 36.0178,20.0035 M33.0178,17.0035 C32.4658,17.0035 32.0178,16.5555 32.0178,16.0035 C32.0178,15.4515 32.4658,15.0035 33.0178,15.0035 C33.5698,15.0035 34.0178,15.4515 34.0178,16.0035 C34.0178,16.5555 33.5698,17.0035 33.0178,17.0035 M30.0178,14.0035 C29.4658,14.0035 29.0178,13.5555 29.0178,13.0035 C29.0178,12.4515 29.4658,12.0035 30.0178,12.0035 C30.5698,12.0035 31.0178,12.4515 31.0178,13.0035 C31.0178,13.5555 30.5698,14.0035 30.0178,14.0035 M30.0178,20.0035 C29.4658,20.0035 29.0178,19.5555 29.0178,19.0035 C29.0178,18.4515 29.4658,18.0035 30.0178,18.0035 C30.5698,18.0035 31.0178,18.4515 31.0178,19.0035 C31.0178,19.5555 30.5698,20.0035 30.0178,20.0035 M27.0178,17.0035 C26.4658,17.0035 26.0178,16.5555 26.0178,16.0035 C26.0178,15.4515 26.4658,15.0035 27.0178,15.0035 C27.5698,15.0035 28.0178,15.4515 28.0178,16.0035 C28.0178,16.5555 27.5698,17.0035 27.0178,17.0035 M24.0178,14.0035 C23.4658,14.0035 23.0178,13.5555 23.0178,13.0035 C23.0178,12.4515 23.4658,12.0035 24.0178,12.0035 C24.5698,12.0035 25.0178,12.4515 25.0178,13.0035 C25.0178,13.5555 24.5698,14.0035 24.0178,14.0035 M24.0178,20.0035 C23.4658,20.0035 23.0178,19.5555 23.0178,19.0035 C23.0178,18.4515 23.4658,18.0035 24.0178,18.0035 C24.5698,18.0035 25.0178,18.4515 25.0178,19.0035 C25.0178,19.5555 24.5698,20.0035 24.0178,20.0035 M21.0178,17.0035 C20.4658,17.0035 20.0178,16.5555 20.0178,16.0035 C20.0178,15.4515 20.4658,15.0035 21.0178,15.0035 C21.5698,15.0035 22.0178,15.4515 22.0178,16.0035 C22.0178,16.5555 21.5698,17.0035 21.0178,17.0035 M38.0178,10.0035 L34.0178,10.0035 C34.0178,10.5555 33.5698,11.0035 33.0178,11.0035 C32.4658,11.0035 32.0178,10.5555 32.0178,10.0035 L28.0178,10.0035 C28.0178,10.5555 27.5698,11.0035 27.0178,11.0035 C26.4658,11.0035 26.0178,10.5555 26.0178,10.0035 L22.0178,10.0035 C22.0178,10.5555 21.5698,11.0035 21.0178,11.0035 C20.4658,11.0035 20.0178,10.5555 20.0178,10.0035 L17.0178,10.0035 L17.0178,13.0035 C17.0178,12.4515 17.4658,12.0035 18.0178,12.0035 C18.5698,12.0035 19.0178,12.4515 19.0178,13.0035 C19.0178,13.5555 18.5698,14.0035 18.0178,14.0035 C17.4658,14.0035 17.0178,13.5555 17.0178,13.0035 L17.0178,19.0035 C17.0178,18.4515 17.4658,18.0035 18.0178,18.0035 C18.5698,18.0035 19.0178,18.4515 19.0178,19.0035 C19.0178,19.5555 18.5698,20.0035 18.0178,20.0035 C17.4658,20.0035 17.0178,19.5555 17.0178,19.0035 L17.0178,22.0035 L20.0178,22.0035 C20.0178,21.4515 20.4658,21.0035 21.0178,21.0035 C21.5698,21.0035 22.0178,21.4515 22.0178,22.0035 L26.0178,22.0035 C26.0178,21.4515 26.4658,21.0035 27.0178,21.0035 C27.5698,21.0035 28.0178,21.4515 28.0178,22.0035 L32.0178,22.0035 C32.0178,21.4515 32.4658,21.0035 33.0178,21.0035 C33.5698,21.0035 34.0178,21.4515 34.0178,22.0035 L38.0178,22.0035 C38.0178,21.4515 38.4658,21.0035 39.0178,21.0035 L39.0178,17.0035 C38.4658,17.0035 38.0178,16.5555 38.0178,16.0035 C38.0178,15.4515 38.4658,15.0035 39.0178,15.0035 L39.0178,11.0035 C38.4658,11.0035 38.0178,10.5555 38.0178,10.0035" fill="#000000"/></g></g></g></svg>
