<svg version="1.1" xmlns="http://www.w3.org/2000/svg" xmlns:xlink="http://www.w3.org/1999/xlink" width="90px" height="92px" x="0px" y="0px"
	 viewBox="0 0 90 92" style="enable-background:new 0 0 90 92;" xml:space="preserve">
<style type="text/css">
	.st0{fill:none;stroke:#000000;stroke-width:2;stroke-linejoin:round;stroke-miterlimit:10;}
</style>
<title>Group 97</title>
<desc>Created with Sketch.</desc>
<g>
	<g transform="translate(-722.000000, -1487.000000)">
		<g transform="translate(722.000000, 1487.000000)">
			<path d="M78.1,73.6H11.9c-0.7,0-1.2-0.5-1.2-1.2s0.5-1.2,1.2-1.2h66.2c0.7,0,1.2,0.5,1.2,1.2S78.8,73.6,78.1,73.6"/>
			<path d="M21.7,71.2h46.6V2.5H21.7V71.2z M69.6,73.6H20.5c-0.7,0-1.2-0.5-1.2-1.2V1.2c0-0.7,0.5-1.2,1.2-1.2h49.1
				c0.7,0,1.2,0.5,1.2,1.2v71.1C70.8,73.1,70.2,73.6,69.6,73.6L69.6,73.6z"/>
			<path d="M26.6,71.2h36.8V7.4H26.6V71.2z M64.6,73.6H25.4c-0.7,0-1.2-0.5-1.2-1.2V6.1c0-0.7,0.5-1.2,1.2-1.2h39.3
				c0.7,0,1.2,0.5,1.2,1.2v66.2C65.9,73.1,65.3,73.6,64.6,73.6L64.6,73.6z"/>
			<path d="M56.1,40.5h2.5V38h-2.5V40.5z M59.7,42.9h-4.9c-0.7,0-1.2-0.5-1.2-1.2v-4.9c0-0.7,0.5-1.2,1.2-1.2h4.9
				c0.7,0,1.2,0.5,1.2,1.2v4.9C61,42.4,60.4,42.9,59.7,42.9L59.7,42.9z"/>
			<path d="M54.8,40.5h-3.7c-0.7,0-1.2-0.5-1.2-1.2c0-0.7,0.5-1.2,1.2-1.2h3.7c0.7,0,1.2,0.5,1.2,1.2C56.1,39.9,55.5,40.5,54.8,40.5
				"/>
		</g>
		<rect x="753.8" y="1500.3" class="st0" width="27.3" height="14"/>
	</g>
</g>
<g>
	<circle cx="35.5" cy="14.2" r="1.1"/>
	<circle cx="40.6" cy="14.2" r="1.1"/>
	<circle cx="45.6" cy="14.2" r="1.1"/>
	<circle cx="50.7" cy="14.2" r="1.1"/>
	<circle cx="55.7" cy="14.2" r="1.1"/>
</g>
<g>
	<circle cx="35.5" cy="22.1" r="1.1"/>
	<circle cx="40.6" cy="22.1" r="1.1"/>
	<circle cx="45.6" cy="22.1" r="1.1"/>
	<circle cx="50.7" cy="22.1" r="1.1"/>
	<circle cx="55.7" cy="22.1" r="1.1"/>
</g>
<g>
	<circle cx="32.7" cy="18.2" r="1.1"/>
	<circle cx="37.8" cy="18.2" r="1.1"/>
	<circle cx="42.8" cy="18.2" r="1.1"/>
	<circle cx="47.8" cy="18.2" r="1.1"/>
	<circle cx="52.9" cy="18.2" r="1.1"/>
	<circle cx="57.9" cy="18.2" r="1.1"/>
</g>
<g>
	<circle cx="32.7" cy="26.1" r="1.1"/>
	<circle cx="37.8" cy="26.1" r="1.1"/>
	<circle cx="42.8" cy="26.1" r="1.1"/>
	<circle cx="47.8" cy="26.1" r="1.1"/>
	<circle cx="52.9" cy="26.1" r="1.1"/>
	<circle cx="57.9" cy="26.1" r="1.1"/>
</g>
</svg>
