<svg xmlns="http://www.w3.org/2000/svg" xmlns:xlink="http://www.w3.org/1999/xlink" viewBox="0 0 56 75" width="90px" height="92px" version="1.1" x="0px" y="0px"><title>Group 98</title><desc>Created with Sketch.</desc><g stroke="none" stroke-width="1" fill="none" fill-rule="evenodd"><g transform="translate(-842.000000, -1487.000000)" fill="#000000"><g transform="translate(842.000000, 1487.000000)"><path d="M55.0178,60.0035 L1.0178,60.0035 C0.4648,60.0035 0.0178,59.5565 0.0178,59.0035 C0.0178,58.4505 0.4648,58.0035 1.0178,58.0035 L55.0178,58.0035 C55.5708,58.0035 56.0178,58.4505 56.0178,59.0035 C56.0178,59.5565 55.5708,60.0035 55.0178,60.0035"/><path d="M9.018,58.003 L47.018,58.003 L47.018,2.003 L9.018,2.003 L9.018,58.003 Z M48.018,60.003 L8.018,60.003 C7.465,60.003 7.018,59.556 7.018,59.003 L7.018,1.003 C7.018,0.451 7.465,0.003 8.018,0.003 L48.018,0.003 C48.571,0.003 49.018,0.451 49.018,1.003 L49.018,59.003 C49.018,59.556 48.571,60.003 48.018,60.003 L48.018,60.003 Z"/><path d="M13.018,58.003 L43.018,58.003 L43.018,6.003 L13.018,6.003 L13.018,58.003 Z M44.018,60.003 L12.018,60.003 C11.465,60.003 11.018,59.556 11.018,59.003 L11.018,5.003 C11.018,4.451 11.465,4.003 12.018,4.003 L44.018,4.003 C44.571,4.003 45.018,4.451 45.018,5.003 L45.018,59.003 C45.018,59.556 44.571,60.003 44.018,60.003 L44.018,60.003 Z"/><path d="M37.018,33.003 L39.018,33.003 L39.018,31.003 L37.018,31.003 L37.018,33.003 Z M40.018,35.003 L36.018,35.003 C35.465,35.003 35.018,34.556 35.018,34.003 L35.018,30.003 C35.018,29.451 35.465,29.003 36.018,29.003 L40.018,29.003 C40.571,29.003 41.018,29.451 41.018,30.003 L41.018,34.003 C41.018,34.556 40.571,35.003 40.018,35.003 L40.018,35.003 Z"/><path d="M36.0178,33.0035 L33.0178,33.0035 C32.4648,33.0035 32.0178,32.5565 32.0178,32.0035 C32.0178,31.4505 32.4648,31.0035 33.0178,31.0035 L36.0178,31.0035 C36.5708,31.0035 37.0178,31.4505 37.0178,32.0035 C37.0178,32.5565 36.5708,33.0035 36.0178,33.0035"/><path d="M17.018,17.003 L39.018,17.003 L39.018,11.003 L17.018,11.003 L17.018,17.003 Z M40.018,19.003 L16.018,19.003 C15.465,19.003 15.018,18.556 15.018,18.003 L15.018,10.003 C15.018,9.451 15.465,9.003 16.018,9.003 L40.018,9.003 C40.571,9.003 41.018,9.451 41.018,10.003 L41.018,18.003 C41.018,18.556 40.571,19.003 40.018,19.003 L40.018,19.003 Z"/><path d="M17.0178,29.0035 L29.0178,29.0035 L29.0178,26.0035 C29.0178,25.4505 29.4648,25.0035 30.0178,25.0035 L39.0178,25.0035 L39.0178,23.0035 L17.0178,23.0035 L17.0178,29.0035 Z M30.0178,31.0035 L16.0178,31.0035 C15.4648,31.0035 15.0178,30.5565 15.0178,30.0035 L15.0178,22.0035 C15.0178,21.4505 15.4648,21.0035 16.0178,21.0035 L40.0178,21.0035 C40.5708,21.0035 41.0178,21.4505 41.0178,22.0035 L41.0178,26.0035 C41.0178,26.5565 40.5708,27.0035 40.0178,27.0035 L31.0178,27.0035 L31.0178,30.0035 C31.0178,30.5565 30.5708,31.0035 30.0178,31.0035 L30.0178,31.0035 Z"/><path d="M17.0178,41.0035 L39.0178,41.0035 L39.0178,39.0035 L30.0178,39.0035 C29.4648,39.0035 29.0178,38.5565 29.0178,38.0035 L29.0178,35.0035 L17.0178,35.0035 L17.0178,41.0035 Z M40.0178,43.0035 L16.0178,43.0035 C15.4648,43.0035 15.0178,42.5565 15.0178,42.0035 L15.0178,34.0035 C15.0178,33.4505 15.4648,33.0035 16.0178,33.0035 L30.0178,33.0035 C30.5708,33.0035 31.0178,33.4505 31.0178,34.0035 L31.0178,37.0035 L40.0178,37.0035 C40.5708,37.0035 41.0178,37.4505 41.0178,38.0035 L41.0178,42.0035 C41.0178,42.5565 40.5708,43.0035 40.0178,43.0035 L40.0178,43.0035 Z"/><path d="M17.018,53.003 L39.018,53.003 L39.018,47.003 L17.018,47.003 L17.018,53.003 Z M40.018,55.003 L16.018,55.003 C15.465,55.003 15.018,54.556 15.018,54.003 L15.018,46.003 C15.018,45.451 15.465,45.003 16.018,45.003 L40.018,45.003 C40.571,45.003 41.018,45.451 41.018,46.003 L41.018,54.003 C41.018,54.556 40.571,55.003 40.018,55.003 L40.018,55.003 Z"/></g></g></g></svg>
